<?xml version="1.0" encoding="UTF-8" standalone="no"?>
<svg
   xmlns:dc="http://purl.org/dc/elements/1.1/"
   xmlns:cc="http://creativecommons.org/ns#"
   xmlns:rdf="http://www.w3.org/1999/02/22-rdf-syntax-ns#"
   xmlns:svg="http://www.w3.org/2000/svg"
   xmlns="http://www.w3.org/2000/svg"
   viewBox="0 0 58 64"
   height="64"
   width="58"
   version="1.1"
   id="svg3376">
  <metadata
     id="metadata3382">
    <rdf:RDF>
      <cc:Work
         rdf:about="">
        <dc:format>image/svg+xml</dc:format>
        <dc:type
           rdf:resource="http://purl.org/dc/dcmitype/StillImage" />
        <dc:title></dc:title>
      </cc:Work>
    </rdf:RDF>
  </metadata>
  <defs
     id="defs3380" />
  <path
     id="path3386"
     d="m 23.771187,62.381143 c -7.578061,-3.497501 -11.5,-10.174292 -11.5,-19.577838 0,-4.398242 -0.327061,-5.532119 -1.595709,-5.532119 -2.5736568,0 -7.0032327,-3.05105 -8.7687503,-6.039833 -1.28636727,-2.177647 -1.63554127,-5.521874 -1.63554127,-15.664459 0,-13.6716745 0.4990261,-15.29570751 4.69999997,-15.29570751 2.0166667,0 2.3,0.492754 2.3,4.00000001 0,3.982101 -0.4762226,4.436171 -4.25,4.052296 -1.5514392,-0.157815 -1.75,0.853934 -1.75,8.9169635 0,10.667994 1.5301634,15.219298 5.8715623,17.464322 5.1696853,2.673348 9.8460933,2.048763 13.7284383,-1.833582 l 3.4,-3.4 0,-10.533578 0,-10.5335765 -2.75,-0.316423 c -2.41592,-0.277982 -2.75,-0.741615 -2.75,-3.816422 0,-2.807033 0.4208,-3.56003401 2.125354,-3.80321701 4.385004,-0.625593 5.374646,2.02714701 5.374646,14.40676351 0,15.150826 -2.230934,20.303352 -9.64255,22.270263 -3.446187,0.914556 -4.012247,3.655078 -2.379485,11.520048 3.418371,16.466206 25.236415,19.552752 32.772035,4.636181 1.596918,-3.161059 2.25,-6.215362 2.25,-10.522691 0,-5.814966 -0.124596,-6.115902 -2.978093,-7.192977 -8.116758,-3.063734 -5.147279,-15.314371 3.712109,-15.314371 9.111106,0 11.234768,12.780174 2.66507,16.038367 -2.208863,0.839809 -2.399086,1.453599 -2.399086,7.741101 0,5.810229 -0.430619,7.507986 -2.886584,11.380641 -5.084809,8.017912 -14.985536,10.931872 -23.613416,6.949848 z m 31.42742,-29.744816 c 2.721766,-3.460164 2.616666,-5.911964 -0.381965,-8.910596 -4.639972,-4.639971 -11.878788,-1.870016 -11.878788,4.545455 0,6.565202 8.226387,9.494006 12.260753,4.365141 z m -7.67742,-1.027422 c -2.018664,-0.814548 -1.46455,-5.152528 0.813922,-6.371929 2.602032,-1.392565 4.936078,0.28591 4.936078,3.549666 0,2.839764 -2.574728,4.103514 -5.75,2.822263 z m 4.25,-2.907357 c 0,-1.046635 -0.788861,-2.054893 -1.753024,-2.240574 -2.215255,-0.426619 -3.533474,2.698924 -1.642693,3.894881 1.981557,1.253375 3.395717,0.564432 3.395717,-1.654307 z M 6.2711864,4.2711865 c 0,-3.28881701 -1.9183731,-4.00820701 -4,-1.5 -0.9931859,1.196716 -0.9931859,1.803284 0,3 2.0816269,2.508207 4,1.788817 4,-1.5 z m 17.8369106,0.608344 c 0.329626,-1.711612 -1.254633,-3.555622 -3.08691,-3.593031 -0.4125,-0.0084 -0.75,1.367683 -0.75,3.058011 0,2.380964 0.391654,2.997899 1.738516,2.738517 0.956185,-0.184145 1.900461,-1.175718 2.098394,-2.203497 z"
     style="fill:#53b4ff" />
</svg>
