<?xml version="1.0" encoding="UTF-8" standalone="no"?>
<svg
   xmlns:dc="http://purl.org/dc/elements/1.1/"
   xmlns:cc="http://creativecommons.org/ns#"
   xmlns:rdf="http://www.w3.org/1999/02/22-rdf-syntax-ns#"
   xmlns:svg="http://www.w3.org/2000/svg"
   xmlns="http://www.w3.org/2000/svg"
   viewBox="0 0 56 63"
   height="63"
   width="56"
   version="1.1"
   id="svg3393">
  <metadata
     id="metadata3399">
    <rdf:RDF>
      <cc:Work
         rdf:about="">
        <dc:format>image/svg+xml</dc:format>
        <dc:type
           rdf:resource="http://purl.org/dc/dcmitype/StillImage" />
        <dc:title></dc:title>
      </cc:Work>
    </rdf:RDF>
  </metadata>
  <defs
     id="defs3397" />
  <path
     id="path3403"
     d="M 17.627496,61.53183 C 12.87044,59.836141 7.247828,55.412855 4.247874,51.006136 -0.59186197,43.896909 -1.16488,33.16384 2.87277,25.249391 6.600464,17.942507 16.585068,11 23.36602,11 24.316382,11 25,10.188504 25,9.0603653 25,7.5408523 24.187756,7.0535059 21.25,6.8103653 17.81897,6.5263993 17.5,6.244824 17.5,3.5 l 0,-3 7.594961,-0.28927335 c 6.03527,-0.22986853 7.87159,0.0440436 8.942012,1.33382255 2.032559,2.4490842 -0.03321,4.8956657 -4.449248,5.2694526 -5.376998,0.4551249 -4.535219,3.3835412 1.256831,4.3723192 2.379992,0.406295 6.276188,1.827996 8.658214,3.159336 5.029579,2.811085 6.598092,2.050737 5.808385,-2.815658 -0.902634,-5.5622806 3.4246,-5.6693448 8.52935,-0.211032 2.579255,2.757898 2.567266,5.395027 -0.03197,7.031811 -1.297104,0.81681 -2.176915,0.625818 -3.773629,-0.819188 -1.61564,-1.462133 -2.350148,-1.616349 -3.278213,-0.688284 -0.928065,0.928065 -0.798519,1.807798 0.57818,3.926371 C 51.051568,26.489218 52.331492,30.616532 52.36807,37 52.45115,51.499362 40.701993,63.096566 26.071861,62.956107 23.557338,62.931967 19.757373,62.291042 17.627496,61.53183 Z M 37.726662,58.853659 C 51.529442,52.291421 55.385741,32.8203 45.231996,20.957932 40.797726,15.777485 35.096527,12.909774 27.941959,12.261021 23.26768,11.837172 21.270694,12.191091 16.869567,14.223334 4.598434,19.889597 -1.075149,31.349914 2.42693,43.396646 6.840959,58.58037 23.217957,65.751515 37.726662,58.853659 Z M 23,40 c -2.562598,-2.562598 -2.517815,-3.231161 0.452929,-6.76169 2.019849,-2.400454 2.514437,-4.223703 2.801303,-10.326725 L 26.602606,15.5 l 0.198697,8.009453 c 0.168696,6.800115 0.500675,8.198042 2.198697,9.258474 2.393048,1.494483 2.615656,5.47356 0.428571,7.660644 C 27.321818,42.535325 25.407719,42.407719 23,40 Z m 6.555163,-2.173804 c 0.70708,-2.227811 -1.892141,-5.21387 -3.943283,-4.530156 -1.680159,0.560053 -2.955251,3.366767 -2.302412,5.068037 0.948115,2.47075 5.412829,2.086247 6.245695,-0.537881 z M 6.06768,35.217881 c -0.09186,-3.097434 2.545943,-9.174538 5.230048,-12.049248 2.451913,-2.62603 7.614229,-5.59001 8.388133,-4.816106 0.275,0.275 -0.838217,1.192019 -2.473815,2.03782 C 13.400443,22.361403 9.160747,27.398991 8.428371,30.827072 8.114296,32.297182 7.469884,34.4 6.996343,35.5 6.179271,37.397999 6.131909,37.383611 6.06768,35.217881 Z M 54.550222,15.91874 C 55.441676,14.476336 50.108944,9 47.812909,9 c -2.572784,0 -2.246729,1.937752 0.874182,5.195281 2.831204,2.95514 4.752811,3.519994 5.863131,1.723459 z M 32.758713,4.7852872 C 35.314066,2.6645328 32.094246,1 25.436572,1 c -6.322623,0 -8.08409,0.8702114 -7.076491,3.4959737 0.649922,1.6936681 12.42149,1.9301957 14.398632,0.2893135 z"
     style="fill:#53b4ff" />
</svg>
