<?xml version="1.0" encoding="UTF-8" standalone="no"?>
<svg
   xmlns:dc="http://purl.org/dc/elements/1.1/"
   xmlns:cc="http://creativecommons.org/ns#"
   xmlns:rdf="http://www.w3.org/1999/02/22-rdf-syntax-ns#"
   xmlns:svg="http://www.w3.org/2000/svg"
   xmlns="http://www.w3.org/2000/svg"
   viewBox="0 0 33 48"
   height="48"
   width="33"
   version="1.1"
   id="svg3417">
  <metadata
     id="metadata3423">
    <rdf:RDF>
      <cc:Work
         rdf:about="">
        <dc:format>image/svg+xml</dc:format>
        <dc:type
           rdf:resource="http://purl.org/dc/dcmitype/StillImage" />
        <dc:title></dc:title>
      </cc:Work>
    </rdf:RDF>
  </metadata>
  <defs
     id="defs3421" />
  <path
     id="path3427"
     d="m 7.3856332,39.70339 -0.4788535,-9 -3.5,-0.576738 -3.50000001,-0.576737 3.50000001,-0.423263 c 2.7092513,-0.327635 3.5721956,-0.9316 3.819551,-2.673262 0.2801813,-1.972793 -0.1202284,-2.25 -3.25,-2.25 -1.9632531,0 -3.56955101,-0.45 -3.56955101,-1 0,-0.55 1.57500001,-1 3.50000001,-1 l 3.5,0 0,-11 0,-11.00000017 8.0496603,0 c 5.151099,0 9.080239,0.53293296 10.911704,1.48002047 9.597305,4.9629591 9.256633,17.0239877 -0.597146,21.1411597 -3.657583,1.528236 -13.364218,1.885341 -13.364218,0.491667 0,-0.487935 3.204252,-1.06821 7.120561,-1.289501 6.284985,-0.355134 7.399781,-0.726961 9.5,-3.168611 3.238577,-3.76507 3.224115,-9.5609412 -0.03331,-13.3489715 C 26.732094,2.8787644 26.011427,2.681475 17.464306,2.3527823 L 8.3473281,2.0021747 8.6270539,15.352782 8.9067797,28.70339 l 4.0000003,0.608095 4,0.608094 -4.212474,0.141906 -4.2124747,0.141905 -0.3086723,9.25 -0.3086724,9.25 -0.4788534,-9 z"
     style="fill:#53b4ff" />
</svg>
