<?xml version="1.0" encoding="UTF-8" standalone="no"?>
<svg
   xmlns:dc="http://purl.org/dc/elements/1.1/"
   xmlns:cc="http://creativecommons.org/ns#"
   xmlns:rdf="http://www.w3.org/1999/02/22-rdf-syntax-ns#"
   xmlns:svg="http://www.w3.org/2000/svg"
   xmlns="http://www.w3.org/2000/svg"
   viewBox="0 0 65 73"
   height="73"
   width="65"
   version="1.1"
   id="svg3364">
  <metadata
     id="metadata3370">
    <rdf:RDF>
      <cc:Work
         rdf:about="">
        <dc:format>image/svg+xml</dc:format>
        <dc:type
           rdf:resource="http://purl.org/dc/dcmitype/StillImage" />
        <dc:title></dc:title>
      </cc:Work>
    </rdf:RDF>
  </metadata>
  <defs
     id="defs3368" />
  <path
     id="path3374"
     d="m 11,66.845338 0,-6 -5.4959418,0 -5.49594202,0 4.82831502,-5.991882 c 2.655573,-3.295535 6.1116888,-8.528424 7.6802558,-11.628642 2.696937,-5.330402 2.755003,-5.707643 1.068378,-6.940933 -1.414682,-1.034441 -1.647433,-2.109915 -1.125368,-5.199993 0.491679,-2.910219 0.263798,-4.223139 -0.900751,-5.189629 -2.1646728,-1.796519 -1.9462928,-4.661574 0.545221,-7.153088 1.510942,-1.510942 1.949106,-2.879469 1.554166,-4.854165 -0.6118,-3.059003 0.794243,-5.041667 3.575392,-5.041667 1.039885,0 2.738612,-1.5336682 3.92396,-3.5426839 1.993213,-3.3782436 2.284413,-3.5135652 6.273579,-2.9153528 3.16242,0.4742342 4.504298,0.2406059 5.498485,-0.957316 1.747999,-2.10621051 3.385712,-1.99853621 5.522979,0.3631182 1.068306,1.1804649 3.371573,2.0668273 5.846761,2.25 3.637658,0.2691993 4.172051,0.6440645 4.889097,3.4295939 0.553545,2.1503722 1.755906,3.5212216 3.848787,4.3881206 2.876726,1.191579 3.00944,1.48954 2.41854,5.429944 -0.472078,3.148042 -0.237086,4.491296 0.95944,5.484324 2.065938,1.714577 2.02543,4.724196 -0.07944,5.902141 -2.334478,1.30644 -3.513624,10.814732 -1.767599,14.253415 0.721992,1.421918 3.389206,5.134418 5.927142,8.25 l 4.614427,5.664695 -5.554942,0 -5.554941,0 0,6.196167 0,6.196167 -3.631156,-3.446167 C 47.055419,62.646883 37.775566,49.585895 36.728989,46.594007 36.415525,45.697895 35.683297,45.885882 34.135621,47.259808 32.00266,49.153313 31.951284,49.1482 29.4442,46.792917 27.748576,45.19996 25.696009,44.400593 23.244467,44.378446 c -3.265396,-0.0295 -3.766749,-0.387376 -4.599338,-3.283108 -0.513948,-1.7875 -1.22561,-3.25 -1.581471,-3.25 -0.355862,0 -1.809895,2.3625 -3.231185,5.25 -1.421289,2.8875 -4.4525728,7.725 -6.7361858,10.75 l -4.152023,5.5 4.500545,0.303675 4.5005458,0.303676 0.679731,5.124065 0.679732,5.124065 2.439466,-2.92774 c 1.341707,-1.610258 4.648123,-6.247978 7.347592,-10.306046 5.227429,-7.858312 6.547284,-8.531431 2.357989,-1.202564 -2.989091,5.229199 -12.442518,17.080869 -13.624472,17.080869 -0.453966,0 -0.825393,-2.7 -0.825393,-6 z m 46.576274,-11 C 60.009323,55.845338 62,55.567245 62,55.227353 c 0,-0.339892 -1.337156,-2.140921 -2.971457,-4.002288 -1.634302,-1.861366 -3.996802,-5.192971 -5.25,-7.403566 -2.585993,-4.561594 -5.468168,-5.007116 -7.387695,-1.141977 -1.888935,3.803539 -2.825465,4.331272 -5.728009,3.227727 C 38.854302,45.219645 38,45.223134 38,45.918129 c 0,1.377406 6.505293,11.469042 10.37855,16.100206 L 51.5,65.75058 l 0.826274,-4.952619 0.826274,-4.952619 4.423726,0 z M 35.451422,45.306009 c 1.271485,-0.961534 3.066255,-1.266579 5.150996,-0.875479 2.788565,0.523138 3.372863,0.242484 4.548578,-2.1848 0.881387,-1.819638 2.514891,-3.085111 4.712408,-3.650695 3.053997,-0.78602 3.309975,-1.132802 2.782598,-3.769689 -0.441954,-2.209766 0.03794,-3.639378 2.007333,-5.979867 2.482416,-2.950184 2.516433,-3.155068 0.832724,-5.015545 C 54.174031,22.380159 53.86888,20.859575 54.27794,17.809806 54.753839,14.261717 54.537746,13.620089 52.621522,12.891542 49.941881,11.872744 48.338173,10.010431 47.845476,7.345339 47.555937,5.7791684 46.618654,5.3118502 43.524499,5.1909522 40.817327,5.0851746 39.025349,4.3599193 37.833046,2.8874874 36.168995,0.83247099 35.980529,0.81199119 33.527047,2.4195738 31.800552,3.5508167 29.841139,3.9189664 27.536925,3.545044 24.459853,3.0457039 23.912268,3.3288597 22.137318,6.3371755 c -1.163539,1.9720517 -2.93319,3.4835071 -4.306292,3.6779945 -1.923724,0.272478 -2.432846,1.093155 -2.913752,4.696804 -0.341599,2.559763 -1.272628,4.752726 -2.25,5.299691 -2.100492,1.175494 -2.134619,3.200922 -0.08263,4.903924 1.196526,0.993028 1.431518,2.336282 0.95944,5.484324 -0.5909,3.940405 -0.458186,4.238366 2.41854,5.429945 2.086234,0.864146 3.297738,2.240941 3.851132,4.37656 0.72602,2.8018 1.193372,3.116964 4.637527,3.127359 2.551181,0.0077 4.198848,0.595921 4.934314,1.761561 1.336381,2.118031 3.446704,2.191324 6.065822,0.210671 z M 26.401069,39.939904 C 15.947051,35.19226 13.2425,21.333424 21.037477,12.455436 24.972243,7.9739849 28.859524,6.5031016 35.346683,7.0410673 44.505125,7.8005565 51,14.769782 51,23.837619 51,37.127065 38.387169,45.383335 26.401069,39.939904 Z M 42.632872,37.763219 C 50.126323,33.132011 52.033176,21.510818 46.491735,14.245616 37.104823,1.9387398 18,8.7109996 18,24.345338 c 0,6.603253 2.863781,11.151509 9.008071,14.306614 5.199306,2.669853 10.340002,2.377452 15.624801,-0.888733 z M 32.090684,32.947812 c -0.775124,-0.504589 -2.012624,-0.685923 -2.75,-0.402965 -1.020391,0.391561 -1.300524,-0.64588 -1.172581,-4.34252 0.136183,-3.934734 0.239909,-4.192402 0.546261,-1.356989 0.443116,4.101214 3.462575,6 9.541231,6 3.614531,0 3.98304,-0.285239 5.864986,-4.539688 1.104465,-2.496828 1.866662,-5.534328 1.693769,-6.75 -0.280619,-1.973134 -0.865755,-2.19644 -5.453001,-2.081036 l -5.138651,0.129276 0.52032,-3.879276 c 0.40679,-3.032841 0.188583,-3.879275 -1.000058,-3.879275 -0.937281,0 -1.76497,1.303786 -2.158131,3.399516 -0.350765,1.869734 -1.300938,3.949911 -2.111497,4.622615 -1.284559,1.06609 -1.281162,0.762189 0.02646,-2.367398 C 31.324908,15.525299 32,12.995123 32,11.877458 c 0,-1.117666 0.585,-2.032119 1.3,-2.032119 2.113617,0 3.7,2.20602 3.7,5.145208 0,2.556107 0.320145,2.766204 4.647567,3.05 6.433367,0.421905 7.131388,1.969937 4.212304,9.341804 l -2.361202,5.962987 -4.999335,0.259953 C 35.7497,33.748266 32.865808,33.4524 32.090684,32.947812 Z M 21.047538,29.48938 c -1.711777,-5.186737 -0.0016,-8.676725 4.177711,-8.525727 L 28.5,21.081968 l -3,0.638116 c -2.14865,0.457029 -3.094466,1.303667 -3.33288,2.983398 -0.562268,3.96142 0.687554,6.974553 3.08453,7.436339 1.98052,0.381555 1.93,0.449375 -0.424098,0.569335 -2.195742,0.11189 -2.870013,-0.462447 -3.780014,-3.219776 z"
     style="fill:#53b4ff" />
</svg>
