<?xml version="1.0" encoding="UTF-8" standalone="no"?>
<svg
   xmlns:dc="http://purl.org/dc/elements/1.1/"
   xmlns:cc="http://creativecommons.org/ns#"
   xmlns:rdf="http://www.w3.org/1999/02/22-rdf-syntax-ns#"
   xmlns:svg="http://www.w3.org/2000/svg"
   xmlns="http://www.w3.org/2000/svg"
   viewBox="0 0 65 44"
   height="44"
   width="65"
   version="1.1"
   id="svg3405">
  <metadata
     id="metadata3411">
    <rdf:RDF>
      <cc:Work
         rdf:about="">
        <dc:format>image/svg+xml</dc:format>
        <dc:type
           rdf:resource="http://purl.org/dc/dcmitype/StillImage" />
        <dc:title></dc:title>
      </cc:Work>
    </rdf:RDF>
  </metadata>
  <defs
     id="defs3409" />
  <path
     id="path3415"
     d="m 23.230972,39.714408 c -1.607135,-3.150243 -2.43929,-3.827196 -4.270323,-3.473877 l -2.274208,0.438833 2.318658,-1.209573 c 1.665507,-0.868845 2.162316,-1.791705 1.763654,-3.276122 -0.305252,-1.136603 -0.561147,-2.590577 -0.568657,-3.231055 -0.0075,-0.640478 -1.991528,-2.26996 -4.408928,-3.621071 l -4.395274,-2.456565 -2.5043697,2.12107 c -3.5299253,2.989663 -5.8596794,7.054626 -5.1312179,8.952966 0.6701078,1.746273 6.4713986,3.248449 8.9186046,2.309368 0.829142,-0.318171 1.50753,-0.142617 1.50753,0.390122 0,1.556029 -7.3472625,1.114111 -9.7774941,-0.588089 C 1.1707847,33.802318 1.6644378,31.148739 6.2500098,26.173981 10.237247,21.848339 10.273207,21.743923 8.1643635,20.615304 6.9822949,19.98268 6.2348684,19.245358 6.5034156,18.976811 c 0.2685472,-0.268547 1.4288244,0.09912 2.5783939,0.817038 1.7433535,1.088742 2.4964545,1.05876 4.5392125,-0.180712 1.346997,-0.81731 2.47526,-1.823518 2.507252,-2.236018 0.03199,-0.4125 0.05817,-3.675 0.05817,-7.25 0,-6.4255948 -0.03148,-6.4999366 -2.75,-6.4944235 C 4.4669137,3.6508855 -0.69177771,8.1116498 2.5445901,13.050972 4.808391,16.505968 4.5490966,17.642307 2.1531714,14.766335 -3.0723907,8.4937813 2.1653264,2.7185986 13.186441,2.6008922 c 1.925,-0.020559 4.243626,-0.6030967 5.152503,-1.2945279 1.143742,-0.87010621 5.581389,-1.22851879 14.413907,-1.16415866 11.97909,0.0872883 12.850788,0.22760825 14.219469,2.28895086 0.801935,1.2077792 2.415677,2.2244859 3.586092,2.2593484 2.046242,0.06095 2.03885,0.099145 -0.192335,0.9938047 -3.644538,1.461386 -2.444391,4.8667504 2.820363,8.0026514 l 4.5,2.680383 2.75,-2.557204 C 63.350634,11.100254 64.09956,6.9147461 61.826341,6.0424302 61.078287,5.7553748 59.277567,5.393778 57.824741,5.2388817 54.253194,4.8580932 53.206813,3.6271186 56.454674,3.6271186 c 8.745758,0 10.643771,4.9258467 4.499849,11.6782994 l -1.981991,2.178298 2.638203,2.821702 c 4.526883,4.841747 4.661383,8.969261 0.379449,11.644466 -3.129592,1.955261 -7.803744,2.971274 -7.803744,1.696287 0,-0.560479 1.099906,-1.019052 2.444236,-1.019052 1.34433,0 3.676035,-1.059549 5.181567,-2.354552 2.547416,-2.191195 2.649014,-2.567767 1.464389,-5.427706 -0.700118,-1.690235 -2.108874,-3.829661 -3.130569,-4.754282 -1.758868,-1.591754 -2.259066,-1.426827 -9.408625,3.102242 -9.208955,5.833647 -10.065501,8.495178 -3.300998,10.257139 l 4.25,1.107004 -4.716947,-0.441262 -4.716948,-0.441262 -1.194898,3.988215 c -2.269269,7.574147 -5.804808,7.552748 -5.871207,-0.03554 -0.04132,-4.722487 -0.975346,-5.944522 -3.75,-4.90633 -1.5866,0.593657 -2.254026,1.662205 -2.263655,3.624106 -0.03885,7.915303 -2.818544,9.491628 -5.941813,3.369513 z m 4.855788,-3.337289 c 0.06265,-1.099834 -0.621441,-1.75 -1.841303,-1.75 -2.907638,0 -3.334604,1.572322 -1.41767,5.220632 l 1.72308,3.279368 0.718107,-2.5 c 0.394958,-1.375 0.762962,-3.2875 0.817786,-4.25 z M 40.70089,34.57234 c 0.776539,-2.943719 1.261614,-5.50249 1.077945,-5.686159 -0.183668,-0.183669 -1.517095,0.205137 -2.963169,0.864012 -2.292948,1.044737 -2.629226,1.79561 -2.629226,5.870774 0,8.153239 2.223275,7.636812 4.51445,-1.048627 z M 28.642171,29.011403 c 0.769596,-4.102302 3.253392,-5.502568 5.152813,-2.904954 0.725631,0.99236 1.461394,2.230483 1.635028,2.751386 0.451016,1.353049 7.756428,-2.335179 7.756428,-3.915928 0,-0.723134 -0.528441,-1.314788 -1.174314,-1.314788 -0.645873,0 -0.204933,-1.031859 0.979866,-2.293019 3.186642,-3.392026 4.845984,-8.67751 3.079709,-9.809765 C 41.279751,8.4524948 20.178921,2.8956982 18.12543,4.1648254 16.82951,4.9657483 16.942549,14.271742 18.280644,16.94286 c 0.601811,1.201343 2.28931,3.23386 3.749999,4.516705 2.596086,2.280005 2.60299,2.317132 0.307077,1.65128 -1.956261,-0.567347 -2.260883,-0.372254 -1.823051,1.167554 0.289119,1.016796 0.817162,3.726092 1.17343,6.020657 0.632235,4.071949 0.715486,4.148327 3.473608,3.18684 2.141615,-0.746571 2.984353,-1.829997 3.480464,-4.474493 z m 4.544269,1.62887 c 1.115515,-0.711119 1.234369,-1.382552 0.463686,-2.619477 -1.419997,-2.279058 -2.834056,-1.840345 -3.627203,1.125342 -0.707448,2.645247 0.478868,3.205546 3.163517,1.494135 z M 18.431454,20.10045 c -0.7929,-1.416834 -1.137259,-1.38117 -3.259869,0.337615 l -2.373317,1.921795 2.944087,1.553718 c 2.760073,1.456606 2.963823,1.435505 3.259869,-0.337615 0.17368,-1.040233 -0.08317,-2.604214 -0.57077,-3.475513 z m 34.004986,0.634323 c 2.0625,-1.248925 3.75,-2.639622 3.75,-3.090438 0,-0.689457 -6.425157,-5.017216 -7.448752,-5.017216 -0.183938,0 -0.638136,1.210052 -1.009329,2.689005 -0.371194,1.478953 -1.480814,3.841453 -2.465824,5.25 -2.423163,3.465084 -1.683714,5.670946 1.273765,3.799788 1.182577,-0.748202 3.83764,-2.382214 5.90014,-3.631139 z m -5.25,-12.9165248 c 0,-5.8456464 -1.428335,-6.4669917 -14.866177,-6.4669917 -13.085184,0 -16.270767,0.6910349 -8.475473,1.8385481 5.006786,0.7370283 18.481407,4.8261947 21.261484,6.452259 0.869091,0.5083314 1.692666,0.9379224 1.830166,0.9546464 0.1375,0.01673 0.25,-1.2335831 0.25,-2.7784618 z"
     style="fill:#53b4ff" />
</svg>
