<?xml version="1.0" encoding="UTF-8" standalone="no"?>
<svg
   xmlns:dc="http://purl.org/dc/elements/1.1/"
   xmlns:cc="http://creativecommons.org/ns#"
   xmlns:rdf="http://www.w3.org/1999/02/22-rdf-syntax-ns#"
   xmlns:svg="http://www.w3.org/2000/svg"
   xmlns="http://www.w3.org/2000/svg"
   viewBox="0 0 74 58"
   height="58"
   width="74"
   version="1.1"
   id="svg3336">
  <metadata
     id="metadata3342">
    <rdf:RDF>
      <cc:Work
         rdf:about="">
        <dc:format>image/svg+xml</dc:format>
        <dc:type
           rdf:resource="http://purl.org/dc/dcmitype/StillImage" />
        <dc:title></dc:title>
      </cc:Work>
    </rdf:RDF>
  </metadata>
  <defs
     id="defs3340" />
  <path
     id="path3362"
     d="M 28.262909,53.362702 C 13.018257,43.111515 5.6870379,30.769264 8.1926934,19.574103 9.6217375,13.189195 13.875335,9.7264151 20.289362,9.7264151 c 2.741322,0 4.984223,0.3407429 4.984223,0.7572059 0,0.416463 -1.971913,0.600373 -4.382029,0.408689 -3.706277,-0.294772 -4.889904,0.10527 -7.675437,2.594143 -2.886901,2.579445 -3.3470326,3.683993 -3.7278475,8.948706 -0.3308707,4.57424 0.051683,7.105001 1.6047105,10.615878 4.048441,9.152173 20.62099,23.534616 25.66084,22.269694 2.901119,-0.728134 11.92225,-7.596834 16.347523,-12.447023 7.372165,-8.080043 10.318659,-20.095897 6.66189,-27.167309 -1.924034,-3.72067 -4.319663,-4.979984 -9.473568,-4.979984 -5.001845,0 -8.918001,1.906293 -12.38805,6.030212 l -2.6102,3.102046 -2.477315,-2.816129 c -3.211185,-3.650369 -3.268522,-5.348683 -0.07943,-2.352685 l 2.461087,2.312071 3.525783,-3.095678 c 7.615587,-6.6865726 17.842058,-6.3053224 21.999654,0.820163 1.460303,2.502737 2.030199,5.209594 2.000111,9.5 -0.05326,7.594251 -3.384002,14.357836 -10.538825,21.400692 -4.953469,4.875951 -14.857223,12.099308 -16.58904,12.099308 -0.462665,0 -3.761404,-1.963671 -7.330533,-4.363713 z M 6.4314796,52.726415 c 0,-1.375 0.2269737,-1.9375 0.504386,-1.25 0.2774123,0.6875 0.2774123,1.8125 0,2.5 -0.2774123,0.6875 -0.504386,0.125 -0.504386,-1.25 z M 1.0235849,48.064134 c 0.6875,-0.277412 1.8125,-0.277412 2.5,0 0.6875,0.277413 0.125,0.504386 -1.25,0.504386 -1.37500002,0 -1.93750002,-0.226973 -1.25,-0.504386 z m 8,0 c 0.6875,-0.277412 1.8125001,-0.277412 2.5000001,0 0.6875,0.277413 0.125,0.504386 -1.25,0.504386 -1.3750001,0 -1.9375001,-0.226973 -1.2500001,-0.504386 z M 6.4314796,44.726415 c 0,-1.375 0.2269737,-1.9375 0.504386,-1.25 0.2774123,0.6875 0.2774123,1.8125 0,2.5 -0.2774123,0.6875 -0.504386,0.125 -0.504386,-1.25 z m -6.15789472,-4 c 0,-0.55 0.45,-1 1.00000002,-1 0.55,0 1,0.45 1,1 0,0.55 -0.45,1 -1,1 -0.55000002,0 -1.00000002,-0.45 -1.00000002,-1 z m 66.50000012,-3 c 0.339919,-0.55 0.816476,-1 1.059017,-1 0.242541,0 0.440983,0.45 0.440983,1 0,0.55 -0.476558,1 -1.059017,1 -0.582459,0 -0.780902,-0.45 -0.440983,-1 z M 67.43148,9.7264151 c 0,-1.375 0.226973,-1.9375 0.504386,-1.25 0.277412,0.6875 0.277412,1.8124999 0,2.4999999 -0.277413,0.6875 -0.504386,0.125 -0.504386,-1.2499999 z M 63.023585,6.0641344 c 0.6875,-0.2774123 1.8125,-0.2774123 2.5,0 0.6875,0.2774123 0.125,0.504386 -1.25,0.504386 -1.375,0 -1.9375,-0.2269737 -1.25,-0.504386 z m 8,0 c 0.6875,-0.2774123 1.8125,-0.2774123 2.5,0 0.6875,0.2774123 0.125,0.504386 -1.25,0.504386 -1.375,0 -1.9375,-0.2269737 -1.25,-0.504386 z m -16.75,-2.3377193 c 0,-0.55 0.45,-1 1,-1 0.55,0 1,0.45 1,1 0,0.55 -0.45,1 -1,1 -0.55,0 -1,-0.45 -1,-1 z m 13.157895,-2 c 0,-1.37500001 0.226973,-1.93750001 0.504386,-1.25000001 0.277412,0.68750001 0.277412,1.81250001 0,2.50000001 -0.277413,0.6875 -0.504386,0.125 -0.504386,-1.25 z"
     style="fill:#53b4ff" />
</svg>
