<?xml version="1.0" encoding="UTF-8" standalone="no"?>
<svg
   xmlns:dc="http://purl.org/dc/elements/1.1/"
   xmlns:cc="http://creativecommons.org/ns#"
   xmlns:rdf="http://www.w3.org/1999/02/22-rdf-syntax-ns#"
   xmlns:svg="http://www.w3.org/2000/svg"
   xmlns="http://www.w3.org/2000/svg"
   viewBox="0 0 42.5 49"
   height="49"
   width="42.5"
   version="1.1"
   id="svg3336">
  <metadata
     id="metadata3342">
    <rdf:RDF>
      <cc:Work
         rdf:about="">
        <dc:format>image/svg+xml</dc:format>
        <dc:type
           rdf:resource="http://purl.org/dc/dcmitype/StillImage" />
        <dc:title></dc:title>
      </cc:Work>
    </rdf:RDF>
  </metadata>
  <defs
     id="defs3340" />
  <path
     id="path3346"
     d="M 11.552677,43.272267 C 0.94425875,35.307645 0.27609775,33.984448 0.17182575,20.734153 L 0.08254575,9.389151 9.4575457,4.721967 C 14.613796,2.155016 19.957546,0.054782 21.332546,0.054782 c 1.375,0 6.71875,2.100234 11.875,4.667185 l 9.375,4.667184 0,10.754994 c 0,7.106812 -0.627381,11.924983 -1.849546,14.204175 -2.197338,4.097769 -16.217134,14.421447 -19.559193,14.402692 -1.287694,-0.0072 -5.617202,-2.472661 -9.621131,-5.478745 z m 18.532841,-2.588671 c 4.301245,-3.069305 8.224374,-6.58493 8.718063,-7.8125 0.493688,-1.22757 1.195108,-6.740744 1.558711,-12.251498 l 0.661095,-10.019553 -9.880363,-4.079312 -9.880363,-4.079312 -9.809528,4.094534 -9.8095273,4.094533 0.63705,10.211123 c 0.389495,6.243133 1.385758,11.280056 2.563758,12.961887 2.027429,2.894561 14.4604683,12.351278 16.3293943,12.420332 0.600195,0.02218 4.610464,-2.470929 8.91171,-5.540234 z M 13.387333,35.85578 C 10.701946,32.620087 8.2075467,25.024537 8.2075467,20.083116 c 0,-3.987611 0.648839,-5.436469 3.1762053,-7.092463 2.523343,-1.653357 3.798247,-1.797707 6.202469,-0.702271 2.164815,0.986356 4.113352,0.999898 6.845195,0.04757 5.991956,-2.08881 10.026131,1.157138 10.026131,8.067148 0,5.391775 -4.414941,15.99492 -6.98366,16.772306 -0.747263,0.226149 -2.26822,-1.904334 -3.379904,-4.734407 -2.28099,-5.806837 -3.800499,-5.622304 -5.892182,0.715557 -1.547604,4.689286 -2.649944,5.307311 -4.814468,2.699219 z m 7.994514,-10.841629 c 1.210932,0 2.834144,2.055264 4.032386,5.105692 l 2.005573,5.105692 2.117919,-4.168192 c 4.920992,-9.684807 4.041434,-17.293192 -1.999158,-17.293192 -3.233428,0 -4.191466,1.843592 -1.51852,2.922149 1.058456,0.427096 0.957647,0.648028 -0.3125,0.684872 -1.03125,0.02991 -3.28125,-0.749495 -5,-1.732021 -9.986795,-5.708969 -13.9524143,2.251884 -7.677056,15.411446 l 1.989232,4.171464 2.167655,-5.103955 c 1.266538,-2.982186 3.010223,-5.103955 4.194469,-5.103955 z"
     style="fill:#01bab4" />
</svg>
