<?xml version="1.0" encoding="UTF-8" standalone="no"?>
<svg
   xmlns:dc="http://purl.org/dc/elements/1.1/"
   xmlns:cc="http://creativecommons.org/ns#"
   xmlns:rdf="http://www.w3.org/1999/02/22-rdf-syntax-ns#"
   xmlns:svg="http://www.w3.org/2000/svg"
   xmlns="http://www.w3.org/2000/svg"
   viewBox="0 0 67 92"
   height="92"
   width="67"
   version="1.1"
   id="svg3336">
  <metadata
     id="metadata3342">
    <rdf:RDF>
      <cc:Work
         rdf:about="">
        <dc:format>image/svg+xml</dc:format>
        <dc:type
           rdf:resource="http://purl.org/dc/dcmitype/StillImage" />
        <dc:title></dc:title>
      </cc:Work>
    </rdf:RDF>
  </metadata>
  <defs
     id="defs3340" />
  <path
     id="path3348"
     d="M 25.189741,89.75 C 20.590535,87.241236 11.965859,77.813564 9.0610343,72.119637 8.0193016,70.077672 6.8488087,66.627905 6.4599389,64.453487 6.071069,62.279069 4.9708351,59.6 4.0149745,58.5 0.32899111,54.258187 -1.2730111,44.444534 1.292328,41.821429 2.1115208,40.983789 2.5931316,37.754169 2.6078062,33 2.6536901,18.134823 8.3713045,7.7718308 19.212325,2.9048454 c 7.544546,-3.38706092 21.010819,-3.39640808 28.529318,-0.019803 5.713661,2.5660416 11.435915,8.1934706 13.567512,13.3426816 2.224709,5.374138 3.877318,15.709075 3.175865,19.860939 -0.485918,2.876126 -0.244877,4.294337 0.929462,5.468677 2.84019,2.840189 1.459782,12.466942 -2.429457,16.94266 -0.95586,1.1 -2.056094,3.779069 -2.444964,5.953487 -0.9985,5.583247 -3.71358,10.476801 -9.550065,17.212663 C 44.94522,88.642399 39.262495,92 33.5,92 31.048389,92 27.605852,91.067934 25.189741,89.75 Z m 13.212121,0.155488 c 4.691073,-1.302484 14.091175,-10.72071 18.158244,-18.193255 2.168821,-3.98484 2.805022,-6.71216 3.205928,-13.743442 0.588399,-10.31963 0.104358,-12.780939 -3.311948,-16.840987 l -2.546497,-3.02634 2.046206,-4.010894 c 2.748451,-5.38741 2.583626,-7.46315 -0.899249,-11.324793 -2.913618,-3.230479 -2.975768,-3.24739 -5.75,-1.564605 -8.665053,5.256019 -11.01484,6.16983 -15.937655,6.198013 -4.226663,0.0242 -6.220735,-0.641935 -11.292229,-3.772239 -5.946834,-3.670595 -6.245403,-3.745092 -8.662429,-2.161396 -4.4055499,2.886627 -5.0756395,5.903734 -2.608268,11.743836 l 2.164382,5.122944 -3.0772433,4.583835 c -3.0064692,4.478411 -3.0673029,4.803916 -2.6450478,14.152927 0.5181039,11.47117 2.6883131,16.239789 11.7014261,25.711645 7.262254,7.631883 11.732078,9.26886 19.45438,7.124751 z M 28.5,75.833022 c -2.98188,-1.649219 -6.496377,-5.029867 -6.023849,-5.794433 0.317926,-0.514416 20.468748,-0.641902 22.428837,-0.141898 0.222743,0.05682 -0.451195,1.04938 -1.49764,2.205688 C 39.330963,76.606734 32.837189,78.231836 28.5,75.833022 Z M 41.565285,71.894367 C 41.87413,71.394645 38.267771,71 33.39235,71 c -8.85469,0 -10.442364,0.819071 -3.709145,1.913525 4.579252,0.744336 11.139967,0.181606 11.88208,-1.019158 z M 29.55887,63.468197 c -2.342596,-1.771851 -0.339115,-1.972416 2.429739,-0.243238 1.547793,0.966613 2.219819,0.966613 3.186432,0 C 35.848768,62.551232 37.071008,62 37.89113,62 c 1.117174,0 1.004319,0.368204 -0.45,1.468197 C 36.373508,64.275705 34.6,64.936393 33.5,64.936393 c -1.1,0 -2.873508,-0.660688 -3.94113,-1.468196 z M 18.640462,48.772727 C 18.903127,48.347727 20.414919,48 22,48 c 1.585081,0 3.096873,0.347727 3.359538,0.772727 0.262664,0.425 -1.249128,0.772728 -3.359538,0.772728 -2.11041,0 -3.622202,-0.347728 -3.359538,-0.772728 z m 23,0 C 41.903127,48.347727 43.414919,48 45,48 c 1.585081,0 3.096873,0.347727 3.359538,0.772727 0.262664,0.425 -1.249128,0.772728 -3.359538,0.772728 -2.11041,0 -3.622202,-0.347728 -3.359538,-0.772728 z M 20.5,44.477202 c 6.694687,-1.720814 9.992213,-1.707146 5.5,0.0228 -1.925,0.741314 -5.075,1.328622 -7,1.305128 -3.266252,-0.03986 -3.166074,-0.128549 1.5,-1.327926 z m 21,0.01156 -3,-1.42103 4,0.621943 c 2.2,0.342069 5.125,0.963151 6.5,1.380181 2.245334,0.680999 2.143467,0.7624 -1,0.799087 -1.925,0.02247 -4.85,-0.598614 -6.5,-1.380181 z M 5.0348401,48.267052 C 3.7022107,42.309988 2.3374658,40.807248 1.4546128,44.324814 0.78384141,46.99738 2.5576927,54.71667 4.3477734,56.915015 6.1030383,59.070604 6.4564741,54.621982 5.0348401,48.267052 Z m 60.0386049,2.295365 c 0.840976,-3.757877 0.876987,-5.82856 0.124741,-7.172722 -0.972611,-1.737922 -1.150343,-1.648746 -2.212907,1.110305 -0.635446,1.65 -1.41508,5.475 -1.732518,8.5 -0.521661,4.971124 -0.422557,5.37237 1.030617,4.172722 0.884278,-0.730004 2.139808,-3.704641 2.790067,-6.610305 z M 9.6137388,34.030699 C 7.3240473,27.641376 7.5810177,25.265136 10.923077,21.923077 c 3.385632,-3.385633 5.847818,-3.670762 9.192064,-1.064472 8.842215,6.891051 17.927503,6.891051 26.769718,0 3.475412,-2.708512 6.55338,-2.314932 9.526247,1.21812 2.993087,3.557081 3.293822,7.377172 0.965192,12.260359 -1.571036,3.294498 -1.542041,3.525111 0.893961,7.11001 3.152206,4.638888 3.897171,3.624437 4.52524,-6.16221 C 64.138351,14.360398 53.043397,1.6049442 33.5,1.6049442 c -10.058397,0 -16.879051,2.7466601 -22.402228,9.0213208 -6.1856526,7.027273 -8.9070015,21.31835 -6.0313974,31.673692 l 1.0552206,3.799956 2.5578873,-3.769257 c 2.5213185,-3.715371 2.5346755,-3.834031 0.9342563,-8.299957 z"
     style="fill:#5eb8fe" />
</svg>
