<?xml version="1.0" encoding="UTF-8" standalone="no"?>
<svg
   xmlns:dc="http://purl.org/dc/elements/1.1/"
   xmlns:cc="http://creativecommons.org/ns#"
   xmlns:rdf="http://www.w3.org/1999/02/22-rdf-syntax-ns#"
   xmlns:svg="http://www.w3.org/2000/svg"
   xmlns="http://www.w3.org/2000/svg"
   viewBox="0 0 93 108"
   height="108"
   width="93"
   version="1.1"
   id="svg3336">
  <metadata
     id="metadata3342">
    <rdf:RDF>
      <cc:Work
         rdf:about="">
        <dc:format>image/svg+xml</dc:format>
        <dc:type
           rdf:resource="http://purl.org/dc/dcmitype/StillImage" />
        <dc:title></dc:title>
      </cc:Work>
    </rdf:RDF>
  </metadata>
  <defs
     id="defs3340" />
  <path
     id="path3348"
     d="M 50.908424,105.64864 C 46.253946,103.47087 36.158669,92.169433 33.355051,85.998034 c -1.001309,-2.204107 -1.830444,-5.469968 -1.842523,-7.257468 -0.01208,-1.7875 -0.493963,-3.25 -1.070854,-3.25 -3.468616,0 -6.742992,-17.375159 -3.508295,-18.616429 1.101014,-0.422499 1.305732,-1.711094 0.864161,-5.43947 -0.758017,-6.400261 1.218655,-16.242531 4.46752,-22.244735 10.28002,-18.992104 44.938031,-18.009189 53.957261,1.530249 2.6906,5.828979 4.5483,16.153274 3.75327,20.859048 -0.48592,2.876126 -0.24488,4.294337 0.92946,5.468677 2.70516,2.70516 1.2796,12.824512 -2.38679,16.94266 -0.97933,1.1 -2.09876,3.779069 -2.48763,5.953487 -0.38887,2.174418 -1.53189,5.549418 -2.54003,7.5 -2.41901,4.680349 -10.40425,13.930557 -14.64529,16.965297 -4.59262,3.28632 -12.407793,3.82628 -17.936887,1.23929 z m 16.732557,-1.95706 c 4.11969,-2.60947 12.94227,-13.166056 15.20936,-18.198634 1.43289,-3.180793 2.14532,-7.290922 2.42708,-14.00238 0.39044,-9.300064 0.33433,-9.588455 -2.66619,-13.702936 l -3.06502,-4.202936 1.95021,-4.297064 c 1.07262,-2.363385 1.9601,-5.050038 1.97218,-5.970339 0.025,-1.907128 -4.63866,-7.826725 -6.1662,-7.826725 -0.55571,0 -3.55321,1.538263 -6.66111,3.418363 -3.1079,1.8801 -7.07557,3.707584 -8.817046,4.061076 -4.237625,0.860171 -10.064627,-0.823518 -15.428287,-4.457943 -5.404312,-3.661971 -5.968737,-3.685424 -9.269028,-0.385132 -3.135141,3.13514 -3.320392,6.102506 -0.701461,11.236036 l 1.934903,3.792723 -2.990797,4.417439 c -2.917829,4.309664 -2.983143,4.673611 -2.67709,14.917438 0.361424,12.097134 1.667741,15.105363 10.990486,25.309238 7.836719,8.577406 16.395255,10.682126 23.95801,5.891776 z M 53.740566,92.501526 c -1.7875,-1.08986 -3.25,-2.681376 -3.25,-3.536704 0,-1.30365 1.321141,-1.508172 8.16951,-1.264698 9.274465,0.329725 10.804195,1.616744 5.653852,4.756789 -4.167424,2.540782 -6.463459,2.55047 -10.573362,0.04461 z m 9.25,-3.01096 c 1.399303,-0.601301 0.04774,-0.87594 -4.5,-0.914402 -4.545226,-0.03844 -6.048898,0.236552 -5,0.914402 1.818913,1.175472 6.76453,1.175472 9.5,0 z m -7.94113,-10.531803 c -2.342596,-1.771851 -0.339115,-1.972416 2.429739,-0.243238 1.547793,0.966613 2.219819,0.966613 3.186432,0 0.673727,-0.673727 1.922459,-1.209013 2.774959,-1.189524 1.998534,0.04569 -2.86478,2.892277 -4.95,2.897326 -0.825,0.002 -2.373508,-0.657056 -3.44113,-1.464564 z M 44.970935,65.458802 c -0.388357,-0.628375 -0.235562,-1.613043 0.339546,-2.188151 1.343899,-1.343899 4.477138,-0.171685 3.930377,1.470441 -0.556604,1.671686 -3.386371,2.147328 -4.269923,0.71771 z m 23.519636,-0.968236 c 0,-1.333333 0.66666,-2 2,-2 1.33333,0 2,0.666667 2,2 0,1.333333 -0.66667,2 -2,2 -1.33334,0 -2,-0.666667 -2,-2 z m -26.000005,-9 c 1.822734,-1.177941 7.758784,-1.177941 10.5,0 1.379378,0.592739 -0.172178,0.876488 -5,0.914402 -4.867698,0.03823 -6.543078,-0.240313 -5.5,-0.914402 z m 22.5,0 c 2.564835,-1.102148 7.435165,-1.102148 10.000005,0 1.36803,0.587865 -0.21188,0.859429 -5,0.859429 -4.78813,0 -6.368041,-0.271564 -5.000005,-0.859429 z m -33.595997,15.25 C 31.241341,66.351055 29.08321,58.387988 27.990566,58.18048 c -1.727392,-0.328056 -1.722763,6.438267 0.0075,10.968907 1.877157,4.915266 3.539725,5.69414 3.396499,1.591179 z m 59.106212,-4.799202 c 1.30491,-6.285712 0.12113,-10.433249 -1.89997,-6.656797 -0.6222,1.162595 -1.42545,4.947051 -1.785,8.409904 -0.59293,5.710589 -0.50407,6.172705 0.95557,4.969251 0.88511,-0.729765 2.11334,-3.754826 2.7294,-6.722358 z M 33.971266,57.340365 c 2.669547,-4.033956 2.701278,-4.244976 1.132887,-7.533927 -2.487164,-5.215635 -2.083907,-9.491094 1.191132,-12.628781 3.293252,-3.155136 6.014304,-3.397268 9.310422,-0.828486 8.151806,6.352991 15.745447,6.881946 23.931194,1.666991 6.74954,-4.299976 9.05389,-4.383629 12.36477,-0.448871 2.99309,3.557081 3.29382,7.377172 0.96519,12.260359 -1.57103,3.294498 -1.54204,3.525111 0.89396,7.11001 3.09893,4.560478 3.71966,3.72548 4.45461,-5.992247 0.87104,-11.51714 -1.6349,-19.504229 -8.15133,-25.980417 -9.6694,-9.609679 -26.884442,-11.102387 -39.051681,-3.386153 -8.952057,5.677226 -13.806468,19.73982 -11.421347,33.086147 0.670889,3.754067 1.312931,6.825576 1.42676,6.825576 0.113828,0 1.442873,-1.86759 2.953433,-4.150201 z M 16.942903,34.817524 c -0.830455,-2.104827 -2.689625,-6.382909 -4.131488,-9.50685 -2.353939,-5.100045 -2.489752,-5.998127 -1.330355,-8.797158 2.589522,-6.251661 10.341757,-7.8445454 15.086429,-3.099873 4.463921,4.463921 4.037763,7.232989 -3.396541,22.069848 -2.006474,4.004379 -4.490152,3.738799 -6.228045,-0.665967 z m 6.163382,-1.514196 c 0.983367,-1.591121 -0.202879,-1.920222 -3.037205,-0.842613 -1.484374,0.564358 -2.446336,1.434702 -2.137692,1.934098 0.655516,1.060648 4.322864,0.287134 5.174897,-1.091485 z m -1.615719,-2.812762 c 1.138257,-0.735598 0.716223,-0.973067 -1.75,-0.984687 -1.7875,-0.0084 -3.25,0.434687 -3.25,0.984687 0,1.2702 3.034506,1.2702 5,0 z m 5.284392,-5.904292 c 2.237331,-3.787498 2.166505,-6.252768 -0.268576,-9.348472 -2.604939,-3.311643 -6.295895,-4.170882 -9.903264,-2.305439 -4.415326,2.283254 -5.316862,6.328645 -2.586872,11.607863 1.365227,2.640057 2.026148,2.95034 6.284393,2.95034 4.192133,0 4.962975,-0.345789 6.474319,-2.904292 z M 14.490566,16.702258 c 0,-1.125754 3.826569,-4.211692 5.222506,-4.211692 0.427622,0 0.777494,0.45 0.777494,1 0,0.55 -0.527067,1 -1.171259,1 -0.644193,0 -1.994193,0.744744 -3,1.654988 -1.005808,0.910243 -1.828741,1.16076 -1.828741,0.556704 z m -13.75000006,0.09898 c 0.96249996,-0.251527 2.53749996,-0.251527 3.49999996,0 0.9625,0.251528 0.175,0.457323 -1.75,0.457323 -1.92499996,0 -2.71249996,-0.205795 -1.74999996,-0.457323 z M 5.9905659,6.490566 c -0.995486,-1.1 -1.359975,-2 -0.809975,-2 0.55,0 1.814489,0.9 2.809975,2 0.995486,1.1 1.359975,2 0.809975,2 -0.55,0 -1.814489,-0.9 -2.809975,-2 z m 11.7320031,-4 c 0,-1.925 0.205795,-2.7125 0.457323,-1.75 0.251527,0.9625 0.251527,2.5375 0,3.5 -0.251528,0.9625 -0.457323,0.175 -0.457323,-1.75 z"
     style="fill:#5eb8fe" />
</svg>
