<?xml version="1.0" encoding="UTF-8" standalone="no"?>
<svg
   xmlns:dc="http://purl.org/dc/elements/1.1/"
   xmlns:cc="http://creativecommons.org/ns#"
   xmlns:rdf="http://www.w3.org/1999/02/22-rdf-syntax-ns#"
   xmlns:svg="http://www.w3.org/2000/svg"
   xmlns="http://www.w3.org/2000/svg"
   viewBox="0 0 67 92"
   height="92"
   width="67"
   version="1.1"
   id="svg3336">
  <metadata
     id="metadata3342">
    <rdf:RDF>
      <cc:Work
         rdf:about="">
        <dc:format>image/svg+xml</dc:format>
        <dc:type
           rdf:resource="http://purl.org/dc/dcmitype/StillImage" />
        <dc:title></dc:title>
      </cc:Work>
    </rdf:RDF>
  </metadata>
  <defs
     id="defs3340" />
  <path
     id="path3364"
     d="M 25.298231,89.64151 C 20.699025,87.132746 12.07435,77.705074 9.1695248,72.011147 8.1277921,69.969182 6.9572992,66.519415 6.5684295,64.344997 6.1795596,62.170579 5.0793257,59.49151 4.123465,58.39151 0.43748163,54.149697 -1.1645206,44.336044 1.4008185,41.712939 2.2200113,40.875299 2.7016221,37.645679 2.7162967,32.89151 2.7621806,18.026333 8.479795,7.6633403 19.320815,2.7963549 c 7.544546,-3.38706098 21.010819,-3.39640814 28.529318,-0.019803 5.713661,2.5660416 11.435915,8.1934711 13.567512,13.3426821 2.224709,5.374138 3.877318,15.709075 3.175865,19.860939 -0.485918,2.876126 -0.244877,4.294337 0.929462,5.468677 2.84019,2.840189 1.459782,12.466942 -2.429457,16.94266 -0.95586,1.1 -2.056094,3.779069 -2.444964,5.953487 -0.9985,5.583247 -3.71358,10.476801 -9.550065,17.212663 -6.044776,6.976249 -11.727501,10.33385 -17.489996,10.33385 -2.451611,0 -5.894148,-0.932066 -8.310259,-2.25 z m 13.212121,0.155488 c 4.691073,-1.302484 14.091175,-10.72071 18.158244,-18.193255 2.168821,-3.98484 2.805022,-6.71216 3.205928,-13.743442 0.588399,-10.31963 0.104358,-12.780939 -3.311948,-16.840987 l -2.546497,-3.02634 2.046206,-4.010894 c 2.748451,-5.38741 2.583626,-7.46315 -0.899249,-11.324793 -2.913618,-3.230479 -2.975768,-3.24739 -5.75,-1.564605 -8.665053,5.256019 -11.01484,6.16983 -15.937655,6.198013 -4.226663,0.0242 -6.220735,-0.641935 -11.292229,-3.772239 -5.946834,-3.670595 -6.245403,-3.745092 -8.662428,-2.161396 -4.4055504,2.886627 -5.07564,5.903734 -2.608268,11.743836 l 2.164382,5.122944 -3.0772438,4.583835 C 6.993125,47.286086 6.9322913,47.611591 7.3545464,56.960602 7.8726503,68.431772 10.04286,73.200391 19.055972,82.672247 c 7.262254,7.631883 11.732078,9.26886 19.45438,7.124751 z M 26.70556,75.62506 c -2.146612,-1.228453 -3.834556,-2.673314 -3.750988,-3.210803 0.204695,-1.316547 21.090082,-1.338803 21.346013,-0.02275 0.302543,1.555745 -7.346955,5.467099 -10.692095,5.467099 -1.65,0 -4.756319,-1.005097 -6.90293,-2.233549 z m 11.90293,-0.678826 4,-1.892829 -9,0 -9,0 4,1.892829 c 2.2,1.041056 4.45,1.892829 5,1.892829 0.55,0 2.8,-0.851773 5,-1.892829 z M 29.66736,63.359707 c -2.342596,-1.771851 -0.339115,-1.972416 2.429739,-0.243238 1.547793,0.966613 2.219819,0.966613 3.186432,0 0.673727,-0.673727 1.895967,-1.224959 2.716089,-1.224959 1.117174,0 1.004319,0.368204 -0.45,1.468197 -1.067622,0.807508 -2.84113,1.468196 -3.94113,1.468196 -1.1,0 -2.873508,-0.660688 -3.94113,-1.468196 z M 20.238806,50.548531 c -1.384913,-1.668718 0.270202,-4.101041 2.268759,-3.334123 0.880509,0.337883 1.600925,1.255311 1.600925,2.038728 0,1.933577 -2.613855,2.808576 -3.869684,1.295395 z M 43.10849,48.89151 c 0,-1.333333 0.666667,-2 2,-2 1.333333,0 2,0.666667 2,2 0,1.333333 -0.666667,2 -2,2 -1.333333,0 -2,-0.666667 -2,-2 z m -25.5,-6 c 2.564836,-1.102148 7.435164,-1.102148 10,0 1.368036,0.587865 -0.211875,0.859429 -5,0.859429 -4.788125,0 -6.368036,-0.271564 -5,-0.859429 z m 22,0 c 2.564836,-1.102148 7.435164,-1.102148 10,0 1.368036,0.587865 -0.211875,0.859429 -5,0.859429 -4.788125,0 -6.368036,-0.271564 -5,-0.859429 z M 5.1433307,48.158562 C 3.8107012,42.201498 2.4459563,40.698758 1.5631033,44.216324 0.89233193,46.88889 2.6661832,54.60818 4.4562639,56.806525 c 1.755265,2.155589 2.1087008,-2.293033 0.6870668,-8.647963 z m 60.0386043,2.295365 c 0.840976,-3.757877 0.876987,-5.82856 0.124741,-7.172722 -0.972611,-1.737922 -1.150343,-1.648746 -2.212907,1.110305 -0.635446,1.65 -1.41508,5.475 -1.732518,8.5 -0.521661,4.971124 -0.422557,5.37237 1.030617,4.172722 0.884278,-0.730004 2.139808,-3.704641 2.790067,-6.610305 z M 9.7222293,33.922209 C 7.4325378,27.532886 7.6895082,25.156646 11.031568,21.814587 c 3.385632,-3.385633 5.847817,-3.670762 9.192063,-1.064472 8.842215,6.891051 17.927503,6.891051 26.769718,0 3.475412,-2.708512 6.55338,-2.314932 9.526247,1.21812 2.993087,3.557081 3.293822,7.377172 0.965192,12.260359 -1.571036,3.294498 -1.542041,3.525111 0.893961,7.11001 3.152206,4.638888 3.897171,3.624437 4.52524,-6.16221 C 64.246841,14.251908 53.151887,1.4964537 33.60849,1.4964537 c -10.058397,0 -16.879051,2.7466601 -22.402227,9.0213213 -6.185653,7.027273 -8.907002,21.31835 -6.0313978,31.673692 l 1.0552206,3.799956 2.5578872,-3.769257 c 2.521319,-3.715371 2.534676,-3.834031 0.9342563,-8.299957 z"
     style="fill:#5eb8fe" />
</svg>
